# xmcd
#
# Track frame offsets: 
#        150
#        13666
#        31811
#        48637
#        70334
#        88372
#        104391
#
# Disc length: 1592 seconds
#
# Revision: 0
# Processed by: cddbd v1.5.2PL0 Copyright (c) Steve Scherf et al.
# Submitted via: ExactAudioCopy v1.3
#
DISCID=5b063607
DTITLE=T.G. Copperfield - Talkin' Shop
DYEAR=2019
DGENRE=Blues
TTITLE0=Suckers and Crooks
TTITLE1=On Your Own
TTITLE2=Hammer Down
TTITLE3=Line of Fire
TTITLE4=Survive It
TTITLE5=Caught in the Middle
TTITLE6=The Commuter
EXTD=
EXTT0=
EXTT1=
EXTT2=
EXTT3=
EXTT4=
EXTT5=
EXTT6=
PLAYORDER=
